#define backup_width 12
#define backup_height 12
static unsigned char backup_bits[] = {
   0x00, 0x00, 0x00, 0x00, 0xfe, 0x03, 0x00, 0x00, 0xfe, 0x03, 0x00, 0x00,
   0xfe, 0x03, 0x00, 0x00, 0xfe, 0x03, 0x20, 0x00, 0x70, 0x00, 0xf8, 0x00 };
