#define disk_width 8
#define disk_height 8
static unsigned char disk_bits[] = {
   0x00, 0x00, 0x7e, 0x00, 0x7e, 0x00, 0x7e, 0x00 };
